<?xml version="1.0" standalone="no"?>
<!DOCTYPE svg PUBLIC "-//W3C//DTD SVG 20010904//EN" "http://www.w3.org/TR/2001/REC-SVG-20010904/DTD/svg10.dtd">
<svg xmlns="http://www.w3.org/2000/svg" version="1.0" width="660.000000pt" height="99.000000pt" viewBox="0 0 660.000000 99.000000" preserveAspectRatio="xMidYMid meet">
<metadata>
Created by potrace 1.16, written by Peter Selinger 2001-2019
<meta name="Producer" content="Online-Convert"/></metadata>
<g transform="translate(0.000000,99.000000) scale(0.100000,-0.100000)" fill="#000000" stroke="none">
<path d="M3885 920 c-220 -8 -262 -16 -381 -74 -81 -41 -164 -119 -195 -185 -58 -123 -44 -261 35 -369 66 -89 178 -162 309 -199 34 -10 121 -17 254 -20 l203 -6 19 24 c11 13 32 48 48 77 15 28 30 52 34 52 4 0 9 8 13 18 3 9 11 25 18 35 11 14 10 19 -2 27 -8 5 -111 10 -230 10 -277 0 -333 14 -388 95 -34 49 -38 106 -12 160 45 93 136 124 367 125 l142 0 39 58 c43 62 77 95 135 131 20 12 37 26 37 30 0 5 -21 11 -46 15 -49 6 -80 6 -399 -4z"/>
<path d="M4458 916 c-101 -27 -221 -125 -263 -213 -40 -83 -29 -175 27 -233 63 -66 78 -69 429 -70 329 -1 366 4 402 43 20 23 22 75 4 98 -29 39 -52 41 -315 40 -216 -2 -257 0 -278 14 -31 20 -30 48 2 74 26 20 39 21 333 22 359 1 414 6 419 33 10 52 87 141 151 176 19 10 21 14 10 21 -23 14 -866 10 -921 -5z"/>
<path d="M5500 901 c-88 -29 -155 -71 -189 -121 -59 -86 -98 -80 480 -80 l511 0 47 48 c76 78 141 153 141 163 0 5 -188 9 -467 8 -421 0 -474 -2 -523 -18z"/>
<path d="M5278 629 c-6 -16 21 -72 50 -106 22 -25 105 -76 142 -87 14 -4 41 -12 60 -17 19 -5 173 -11 342 -14 266 -4 311 -6 333 -21 33 -22 29 -45 -13 -65 -28 -15 -82 -17 -410 -18 -207 -1 -379 -5 -383 -9 -3 -4 -13 -27 -22 -53 -15 -40 -55 -89 -117 -142 -11 -10 -19 -21 -16 -25 2 -4 208 -7 458 -7 491 1 547 5 662 58 70 32 133 98 150 158 13 41 13 57 0 115 -7 37 -15 68 -16 70 -2 1 -19 21 -37 43 -19 23 -41 41 -48 41 -7 0 -13 5 -13 10 0 6 -9 10 -19 10 -11 0 -23 4 -26 10 -3 5 -35 18 -70 29 -59 18 -106 21 -533 27 -399 6 -470 5 -474 -7z"/>
<path d="M2224 622 c4 -7 -10 -10 -41 -10 -27 0 -57 -2 -68 -5 -43 -11 -105 -40 -105 -48 0 -5 -7 -9 -15 -9 -9 0 -12 -6 -8 -17 4 -10 2 -14 -4 -10 -7 5 -9 -1 -5 -15 3 -11 1 -19 -4 -16 -11 7 -12 -64 -2 -72 4 -3 9 -15 11 -27 2 -12 14 -31 28 -43 13 -12 18 -18 10 -14 -9 5 -12 3 -7 -5 4 -6 13 -11 19 -10 24 3 37 -1 37 -12 0 -5 -5 -7 -12 -3 -7 4 -8 3 -4 -4 4 -7 16 -17 27 -23 19 -10 20 -9 9 12 -12 21 -11 22 20 15 18 -3 37 -6 42 -6 5 0 6 -4 3 -10 -3 -6 1 -7 10 -4 25 10 85 -5 85 -21 0 -17 16 -20 25 -5 3 5 12 7 21 3 24 -9 12 -46 -19 -61 -36 -17 -89 -1 -107 32 -10 20 -22 25 -66 28 -30 1 -54 0 -54 -5 0 -4 -20 -6 -44 -5 -30 1 -50 -4 -61 -15 -15 -16 -15 -17 0 -17 9 0 14 -4 10 -9 -3 -5 -1 -12 5 -16 6 -4 7 -11 4 -17 -4 -7 -2 -8 4 -4 7 4 12 3 12 -2 0 -14 47 -62 54 -55 3 4 6 1 6 -6 0 -7 4 -10 9 -6 5 3 12 1 15 -4 4 -5 18 -8 31 -5 14 2 25 1 25 -4 0 -4 17 -6 38 -4 28 2 33 1 22 -7 -9 -7 -10 -11 -3 -11 6 0 15 5 18 10 3 6 14 10 23 10 15 0 15 -2 2 -11 -13 -9 -13 -10 0 -6 8 2 22 1 31 -4 8 -4 22 -3 30 3 12 8 11 9 -2 5 -9 -3 -22 -1 -30 4 -10 7 3 9 39 7 28 -2 52 0 52 5 0 4 9 7 20 7 39 0 131 61 135 90 1 3 5 24 9 47 11 59 -20 127 -68 150 -19 9 -33 20 -30 24 2 4 -5 6 -16 4 -11 -2 -20 -1 -20 4 0 4 -15 5 -34 3 -24 -3 -35 1 -39 12 -8 21 1 24 97 30 44 3 84 10 89 15 15 15 -36 87 -74 107 -34 17 -47 20 -121 28 -26 2 -53 8 -59 12 -7 4 -9 3 -5 -4z"/>
<path d="M343 609 c-5 -4 -38 -22 -76 -41 -37 -19 -64 -38 -60 -41 3 -4 1 -7 -5 -7 -7 0 -12 -6 -12 -14 0 -8 -5 -18 -12 -22 -7 -5 -8 -2 -3 7 5 8 4 11 0 7 -7 -7 -14 -36 -17 -75 -1 -7 -8 -13 -16 -13 -10 0 -12 -4 -4 -12 5 -7 9 -39 8 -70 -1 -31 2 -54 6 -52 8 5 9 0 12 -46 0 -12 7 -25 15 -29 7 -5 11 -13 7 -19 -3 -6 -1 -14 5 -18 8 -4 9 -3 5 4 -10 17 9 15 23 -1 6 -8 7 -18 3 -22 -4 -5 1 -5 12 -1 13 4 17 2 13 -8 -4 -10 0 -12 15 -8 15 3 19 1 14 -7 -4 -6 -4 -11 1 -10 4 1 25 -1 46 -6 28 -5 37 -11 32 -23 -4 -12 -3 -13 9 -3 11 9 20 10 36 1 15 -8 25 -8 34 -1 16 14 58 10 52 -5 -6 -17 24 -11 35 7 8 13 13 6 10 -13 0 -4 6 -5 15 -1 13 5 13 7 2 14 -9 6 -7 9 10 10 35 2 40 3 48 11 12 12 26 9 18 -4 -5 -7 -3 -8 5 -4 7 5 10 10 7 13 -9 10 43 45 55 37 8 -4 9 -3 5 4 -4 6 3 19 14 29 27 22 50 65 50 93 0 21 -1 21 -68 22 -23 0 -44 3 -47 7 -2 4 -18 6 -34 5 -17 -1 -31 2 -31 8 0 5 -11 -4 -25 -20 -14 -17 -25 -35 -25 -41 0 -6 -12 -13 -27 -17 -16 -3 -34 -7 -41 -10 -22 -6 -60 14 -79 42 -24 37 -27 119 -5 153 17 27 40 46 57 46 6 0 15 4 22 8 11 7 63 -8 63 -18 0 -4 -6 -3 -12 1 -8 4 -9 3 -5 -2 5 -5 16 -9 25 -9 9 0 16 -5 15 -12 -2 -7 7 -17 18 -24 12 -6 19 -7 15 -1 -6 10 69 22 137 22 29 0 37 4 37 18 0 17 -49 105 -50 89 0 -4 -12 4 -27 18 -16 14 -38 28 -50 31 -13 4 -23 9 -23 13 0 9 -1 9 -137 14 -62 2 -116 0 -120 -4z"/>
<path d="M851 606 c-8 -9 -11 -77 -11 -217 1 -176 4 -207 18 -223 11 -12 12 -16 3 -11 -10 5 -12 4 -7 -3 4 -7 13 -12 20 -12 7 0 21 -9 31 -20 16 -17 61 -29 125 -32 14 -1 31 -6 39 -12 12 -9 13 -8 7 3 -7 10 -3 12 14 6 14 -4 20 -3 16 3 -7 12 49 37 63 28 5 -4 12 -2 16 4 11 18 27 11 22 -10 -5 -21 8 -37 17 -21 3 5 44 8 91 8 l85 -2 -2 254 -3 254 -85 0 c-47 0 -91 4 -98 10 -7 6 -12 6 -11 1 1 -5 1 -69 0 -142 -1 -104 -4 -132 -13 -126 -9 5 -9 2 1 -9 12 -15 11 -17 -5 -18 -13 0 -14 -2 -5 -6 11 -5 11 -7 0 -14 -12 -7 -12 -9 0 -9 18 0 -26 -35 -56 -44 -17 -5 -29 -1 -47 17 -23 23 -24 29 -24 182 l-1 158 -97 -2 c-65 -2 -94 1 -89 8 9 16 -1 13 -14 -3z"/>
<path d="M1790 608 c-12 -4 -26 -5 -31 -2 -5 3 -8 2 -7 -3 2 -5 -7 -21 -19 -37 -13 -16 -23 -23 -23 -14 0 8 6 20 13 27 10 11 10 13 0 7 -8 -4 -13 -2 -13 6 0 10 -22 12 -95 10 l-95 -3 0 -250 0 -249 89 0 c50 0 93 -5 96 -10 16 -26 24 9 23 105 -1 58 2 108 5 111 3 4 3 19 0 35 -3 18 1 38 11 54 9 14 14 25 11 25 -4 0 0 6 8 14 17 18 45 22 75 12 28 -9 41 4 71 72 24 57 22 82 -4 82 -9 0 -14 3 -12 8 7 10 -75 10 -103 0z"/>
<path d="M2743 594 c-71 -29 -104 -53 -121 -87 -7 -15 -17 -27 -22 -27 -5 0 -6 -7 -3 -17 5 -11 3 -14 -6 -8 -10 5 -11 2 -6 -14 4 -12 2 -21 -4 -21 -7 0 -11 -27 -11 -70 0 -45 4 -70 11 -70 7 0 9 -9 6 -21 -3 -12 -3 -18 0 -15 3 3 14 -10 24 -29 24 -45 50 -75 65 -75 6 0 17 -6 23 -13 6 -8 30 -19 53 -26 24 -7 49 -18 57 -25 11 -8 13 -8 8 0 -4 8 2 11 18 10 14 0 25 -7 25 -13 0 -16 36 -17 46 -2 4 8 0 9 -15 4 -13 -4 -21 -2 -21 5 0 9 15 11 50 7 28 -3 50 -1 50 3 0 5 7 7 15 4 9 -4 15 0 15 7 0 11 2 11 10 -1 8 -12 10 -12 16 3 3 10 12 16 18 15 6 -2 30 15 51 37 22 22 44 39 48 37 5 -1 6 2 3 7 -4 5 -1 21 6 36 8 17 14 22 19 13 17 -27 2 177 -16 217 -10 22 -18 42 -18 45 -1 7 -57 60 -57 53 0 -3 -6 -1 -12 4 -32 24 -115 45 -189 48 -64 1 -90 -3 -136 -21z m167 -141 c0 -15 2 -16 10 -3 5 8 10 12 10 8 0 -5 -1 -10 -2 -12 -2 -2 5 -13 15 -24 10 -11 20 -39 23 -64 5 -38 2 -49 -23 -79 -15 -19 -19 -27 -8 -19 13 11 17 11 11 2 -16 -26 -66 -40 -103 -29 -36 11 -46 23 -57 70 -5 22 -4 27 6 21 10 -6 9 -3 -1 9 -11 14 -11 20 0 34 10 12 11 15 1 9 -10 -6 -11 -1 -6 21 9 37 14 44 24 38 5 -3 15 3 22 15 17 26 78 29 78 3z"/>
<path d="M5186 561 c-4 -6 -4 -32 -1 -58 9 -70 -23 -128 -90 -162 -49 -26 -54 -26 -298 -29 -203 -3 -249 -6 -254 -18 -3 -8 -10 -11 -16 -7 -5 3 -7 2 -4 -4 3 -5 -19 -51 -49 -102 -30 -51 -54 -97 -54 -102 0 -17 542 -16 653 1 179 28 294 161 258 298 -20 71 -129 210 -145 183z"/>
<path d="M4320 309 c-19 -3 -30 -7 -25 -8 7 -1 7 -4 0 -9 -6 -4 -19 -24 -30 -44 -10 -20 -23 -34 -27 -32 -5 3 -8 2 -7 -3 4 -23 -3 -43 -26 -67 -14 -15 -28 -38 -31 -51 -6 -23 -3 -25 30 -25 32 0 39 5 72 55 20 30 41 52 47 48 5 -3 7 -1 4 5 -9 14 3 43 14 36 5 -3 7 1 4 8 -8 21 12 45 26 31 15 -15 7 -37 -40 -108 -26 -39 -36 -64 -30 -71 13 -16 58 -5 75 20 46 64 104 158 104 166 0 6 5 10 10 10 12 0 9 22 -5 32 -16 12 -60 9 -73 -4 -7 -7 -12 -20 -12 -31 0 -20 -21 -19 -28 3 -3 9 0 10 9 4 11 -6 10 -3 -1 11 -9 11 -10 16 -2 11 6 -4 12 -3 12 2 0 14 -30 19 -70 11z"/>
</g>
</svg>
